# xmcd
#
# Track frame offsets:
#	150
#	1683
#	15891
#	37159
#	51886
#	64676
#	79556
#	98542
#	110907
#	128375
#	146254
#	163178
#	180419
#	197079
#
# Disc length: 2834 seconds
#
# Revision: 0
# Processed by: cddbd v1.5PL3 Copyright (c) Steve Scherf et al.
# Submitted via: audiograbber 1.83.01
#
DISCID=a30b100e
DTITLE=Sramlikings - Kiálts az égbe!
DYEAR=1900
DGENRE=
TTITLE0=Intro
TTITLE1=Jódli az udvaron
TTITLE2=Hogyha egyszer házasodom
TTITLE3=Kiálts az égbe!
TTITLE4=Jódlidal
TTITLE5=Egy kis erotika
TTITLE6=Ohlala
TTITLE7=Szüreti bál
TTITLE8=Akik vágják a fát
TTITLE9=Tenisz
TTITLE10=Dombok felett
TTITLE11=Szerenád
TTITLE12=Ölelj át
TTITLE13=Lila tehén
EXTD=
EXTT0=
EXTT1=
EXTT2=
EXTT3=
EXTT4=
EXTT5=
EXTT6=
EXTT7=
EXTT8=
EXTT9=
EXTT10=
EXTT11=
EXTT12=
EXTT13=
PLAYORDER=
